<mxfile host="app.diagrams.net" agent="Mozilla/5.0 (Macintosh; Intel Mac OS X 10_15_7) AppleWebKit/537.36 (KHTML, like Gecko) Chrome/138.0.0.0 Safari/537.36" version="27.2.0">
  <diagram name="Page-1" id="T6EEupdXCqabf2bIezwK">
    <mxGraphModel dx="996" dy="617" grid="1" gridSize="10" guides="1" tooltips="1" connect="1" arrows="1" fold="1" page="1" pageScale="1" pageWidth="827" pageHeight="1169" math="0" shadow="0">
      <root>
        <mxCell id="0" />
        <mxCell id="1" parent="0" />
        <mxCell id="tGMma5Ynfwoz19nuWNyr-1" value="&lt;font style=&quot;font-size: 36px;&quot; face=&quot;Times New Roman&quot;&gt;Digital Motion Detector&lt;/font&gt;" style="whiteSpace=wrap;html=1;aspect=fixed;" vertex="1" parent="1">
          <mxGeometry x="290" y="330" width="280" height="280" as="geometry" />
        </mxCell>
        <mxCell id="tGMma5Ynfwoz19nuWNyr-2" value="&lt;font style=&quot;font-size: 18px;&quot; face=&quot;Times New Roman&quot;&gt;AXI STREAM&lt;/font&gt;&lt;div&gt;&lt;font style=&quot;font-size: 18px;&quot; face=&quot;Times New Roman&quot;&gt;Video&lt;/font&gt;&lt;/div&gt;" style="html=1;shadow=0;dashed=0;align=center;verticalAlign=middle;shape=mxgraph.arrows2.twoWayArrow;dy=0.65;dx=22;" vertex="1" parent="1">
          <mxGeometry x="120" y="340" width="170" height="120" as="geometry" />
        </mxCell>
        <mxCell id="tGMma5Ynfwoz19nuWNyr-5" value="&lt;font style=&quot;font-size: 18px;&quot; face=&quot;Times New Roman&quot;&gt;AXI LITE&lt;/font&gt;&lt;div&gt;&lt;font style=&quot;font-size: 18px;&quot; face=&quot;Times New Roman&quot;&gt;&amp;nbsp;Configuration&lt;/font&gt;&lt;/div&gt;" style="html=1;shadow=0;dashed=0;align=center;verticalAlign=middle;shape=mxgraph.arrows2.twoWayArrow;dy=0.65;dx=22;" vertex="1" parent="1">
          <mxGeometry x="120" y="480" width="170" height="120" as="geometry" />
        </mxCell>
        <mxCell id="tGMma5Ynfwoz19nuWNyr-6" value="&lt;font style=&quot;font-size: 18px;&quot; face=&quot;Times New Roman&quot;&gt;AXI STREAM&lt;/font&gt;&lt;div&gt;&lt;font style=&quot;font-size: 18px;&quot; face=&quot;Times New Roman&quot;&gt;Video&lt;/font&gt;&lt;/div&gt;" style="html=1;shadow=0;dashed=0;align=center;verticalAlign=middle;shape=mxgraph.arrows2.twoWayArrow;dy=0.65;dx=22;" vertex="1" parent="1">
          <mxGeometry x="570" y="470" width="170" height="120" as="geometry" />
        </mxCell>
        <mxCell id="tGMma5Ynfwoz19nuWNyr-11" value="&lt;font style=&quot;font-size: 18px;&quot; face=&quot;Times New Roman&quot;&gt;AXI MEM&lt;/font&gt;" style="html=1;shadow=0;dashed=0;align=center;verticalAlign=middle;shape=mxgraph.arrows2.twoWayArrow;dy=0.65;dx=22;" vertex="1" parent="1">
          <mxGeometry x="570" y="340" width="170" height="120" as="geometry" />
        </mxCell>
      </root>
    </mxGraphModel>
  </diagram>
</mxfile>
